<?xml version="1.0" standalone="no"?>
<!DOCTYPE svg PUBLIC "-//W3C//DTD SVG 20010904//EN"
 "http://www.w3.org/TR/2001/REC-SVG-20010904/DTD/svg10.dtd">
<svg version="1.0" xmlns="http://www.w3.org/2000/svg"
 width="800.000000pt" height="800.000000pt" viewBox="0 0 800.000000 800.000000"
 preserveAspectRatio="xMidYMid meet">

<g transform="translate(0.000000,800.000000) scale(0.100000,-0.100000)"
fill="#000000" stroke="none">
<path d="M3865 6120 c-98 -25 -130 -38 -209 -84 -130 -77 -239 -201 -302 -343
-33 -73 -64 -211 -64 -283 0 -66 23 -201 45 -267 42 -124 139 -249 255 -326
97 -65 184 -141 203 -177 13 -27 17 -55 15 -125 l-3 -90 -175 -104 c-96 -57
-263 -155 -370 -219 -107 -63 -205 -121 -217 -128 -12 -8 -37 -22 -55 -32 -18
-11 -134 -79 -258 -152 -124 -73 -240 -141 -258 -152 -19 -10 -77 -45 -130
-77 -53 -31 -153 -90 -222 -131 -69 -40 -145 -85 -170 -100 -25 -15 -74 -44
-110 -65 -36 -21 -103 -60 -150 -88 -47 -27 -98 -57 -115 -67 -281 -161 -405
-241 -447 -289 -97 -111 -152 -361 -114 -524 36 -157 147 -302 285 -376 124
-66 -79 -61 2699 -61 l2520 0 68 21 c154 47 272 148 342 291 90 186 94 371 12
543 -36 75 -78 126 -144 174 -47 34 -75 52 -161 101 -16 9 -75 44 -130 77 -55
33 -179 106 -275 163 -96 56 -206 121 -245 145 -38 23 -126 75 -195 115 -69
40 -169 100 -222 131 -53 32 -111 67 -130 77 -18 11 -96 56 -173 102 -77 46
-210 124 -295 175 -85 51 -234 138 -330 195 -96 57 -226 134 -289 172 -62 37
-118 68 -122 68 -5 0 -9 54 -9 119 0 134 -18 249 -50 311 -33 65 -91 121 -213
209 -121 86 -194 155 -223 211 -28 53 -29 189 -2 260 29 75 116 161 190 186
112 38 256 16 336 -51 38 -32 86 -121 106 -197 28 -103 48 -148 85 -189 35
-40 41 -43 99 -47 89 -6 127 4 167 45 51 53 69 116 63 232 -16 300 -266 557
-608 624 -107 21 -215 20 -305 -3z m259 -2158 c85 -50 353 -206 726 -425 47
-27 99 -57 115 -67 17 -9 152 -88 300 -175 222 -130 494 -289 660 -385 411
-238 566 -334 589 -361 14 -16 28 -46 32 -66 9 -46 -19 -137 -52 -169 l-23
-24 -2482 0 -2481 0 -29 31 c-49 53 -63 146 -31 208 16 33 62 62 357 231 17 9
80 46 140 82 61 36 182 107 270 158 88 51 196 114 240 140 44 26 163 95 265
155 102 59 248 144 325 190 192 113 600 351 774 452 92 53 156 83 174 83 18 0
70 -23 131 -58z"/>
</g>
</svg>
